<svg xmlns="http://www.w3.org/2000/svg" width="649.294" height="704.289" viewBox="0 0 649.294 704.289"><g transform="matrix(0.391, 0.921, -0.921, 0.391, 360.059, -250.636)"><g transform="translate(257 36)" fill="none"><path d="M284.026,0,568.052,331.921H0Z" stroke="none"/><path d="M 284.0262145996094 1.53802490234375 L 2.17181396484375 330.9208374023438 L 565.880615234375 330.9208374023438 L 284.0262145996094 1.53802490234375 M 284.0262145996094 0 L 568.0524291992188 331.9208374023438 L 0 331.9208374023438 L 284.0262145996094 0 Z" stroke="none" fill="#e72d4b"/></g><g transform="translate(257 55.603)" fill="none"><path d="M284.026,0,568.052,331.921H0Z" stroke="none"/><path d="M 284.0262145996094 1.53802490234375 L 2.17181396484375 330.9208374023438 L 565.880615234375 330.9208374023438 L 284.0262145996094 1.53802490234375 M 284.0262145996094 0 L 568.0524291992188 331.9208374023438 L 0 331.9208374023438 L 284.0262145996094 0 Z" stroke="none" fill="#e72d4b"/></g><g transform="translate(257 73.425)" fill="none"><path d="M284.026,0,568.052,331.921H0Z" stroke="none"/><path d="M 284.0262145996094 1.53802490234375 L 2.17181396484375 330.9208374023438 L 565.880615234375 330.9208374023438 L 284.0262145996094 1.53802490234375 M 284.0262145996094 0 L 568.0524291992188 331.9208374023438 L 0 331.9208374023438 L 284.0262145996094 0 Z" stroke="none" fill="#e72d4b"/></g><g transform="translate(257 93.028)" fill="none"><path d="M284.026,0,568.052,331.921H0Z" stroke="none"/><path d="M 284.0262145996094 1.53802490234375 L 2.17181396484375 330.9208374023438 L 565.880615234375 330.9208374023438 L 284.0262145996094 1.53802490234375 M 284.0262145996094 0 L 568.0524291992188 331.9208374023438 L 0 331.9208374023438 L 284.0262145996094 0 Z" stroke="none" fill="#e72d4b"/></g><g transform="translate(257 111.295)" fill="none"><path d="M284.026,0,568.052,331.921H0Z" stroke="none"/><path d="M 284.0262145996094 1.53802490234375 L 2.17181396484375 330.9208374023438 L 565.880615234375 330.9208374023438 L 284.0262145996094 1.53802490234375 M 284.0262145996094 0 L 568.0524291992188 331.9208374023438 L 0 331.9208374023438 L 284.0262145996094 0 Z" stroke="none" fill="#e72d4b"/></g><g transform="translate(257 130.898)" fill="none"><path d="M284.026,0,568.052,331.921H0Z" stroke="none"/><path d="M 284.0262145996094 1.53802490234375 L 2.17181396484375 330.9208374023438 L 565.880615234375 330.9208374023438 L 284.0262145996094 1.53802490234375 M 284.0262145996094 0 L 568.0524291992188 331.9208374023438 L 0 331.9208374023438 L 284.0262145996094 0 Z" stroke="none" fill="#e72d4b"/></g><g transform="translate(257 148.719)" fill="none"><path d="M284.026,0,568.052,331.921H0Z" stroke="none"/><path d="M 284.0262145996094 1.53802490234375 L 2.17181396484375 330.9208374023438 L 565.880615234375 330.9208374023438 L 284.0262145996094 1.53802490234375 M 284.0262145996094 0 L 568.0524291992188 331.9208374023438 L 0 331.9208374023438 L 284.0262145996094 0 Z" stroke="none" fill="#e72d4b"/></g><g transform="translate(257 168.323)" fill="none"><path d="M284.026,0,568.052,331.921H0Z" stroke="none"/><path d="M 284.0262145996094 1.53802490234375 L 2.17181396484375 330.9208374023438 L 565.880615234375 330.9208374023438 L 284.0262145996094 1.53802490234375 M 284.0262145996094 0 L 568.0524291992188 331.9208374023438 L 0 331.9208374023438 L 284.0262145996094 0 Z" stroke="none" fill="#e72d4b"/></g></g></svg>