<svg xmlns="http://www.w3.org/2000/svg" width="80" height="80" viewBox="0 0 80 80"><g transform="translate(-133 -2612)"><g transform="translate(133 2612)" fill="rgba(231,45,75,0.45)" stroke="#e72d4b" stroke-width="1"><circle cx="40" cy="40" r="40" stroke="none"/><circle cx="40" cy="40" r="39.5" fill="none"/></g><g transform="translate(155 2631.165)"><path d="M7.024,3.683A1.341,1.341,0,0,0,5.683,5.024V34.71l10.73-7.155,10.73,7.155V21.12a1.341,1.341,0,1,1,2.683,0v18.6L16.413,30.78,3,39.721V5.024A4.024,4.024,0,0,1,7.024,1h10.73a1.341,1.341,0,1,1,0,2.683Z" transform="translate(0 0)" fill="#fff" fill-rule="evenodd"/><path d="M24.864,2.393a1.341,1.341,0,0,1,0,1.9L16.816,12.34a1.341,1.341,0,0,1-1.9,0L10.893,8.316a1.343,1.343,0,0,1,1.9-1.9l3.074,3.077,7.1-7.1a1.341,1.341,0,0,1,1.9,0Z" transform="translate(12.619 1.681)" fill="#fff" fill-rule="evenodd"/></g></g></svg>