<svg xmlns="http://www.w3.org/2000/svg" width="162.214" height="129.031" viewBox="0 0 162.214 129.031"><g transform="translate(-739.941 -515.277)"><path d="M457.511,163.865a12.685,12.685,0,1,0,0-25.369m0,25.369a12.685,12.685,0,1,1,0-25.369m0,25.369h-44.2m44.2-25.369H411m0,25.369h2.307m0-28.06v28.06m0,3.076v-3.076m0,0-1.153,1.153m1.153-1.153,1.153-1.153m-2.307-23.062,1.153-1.153,1.153-1.153" transform="translate(328.941 406.607)" fill="none" stroke="#fff" stroke-width="0.5"/><path d="M500.721,196.017h56.122m-56.122-22.3h58.427m0,22.3h-2.305m0-24.986v24.986m0,3.075v-3.075m0,0L558,197.169m-1.153-1.152-1.153-1.153M558,174.875l-1.153-1.153-1.153-1.153" transform="translate(343.007 412.129)" fill="none" stroke="#fff" stroke-width="0.5"/><circle cx="11.147" cy="11.147" r="11.147" transform="translate(834.503 585.849)" fill="none" stroke="#fff" stroke-width="1"/><path d="M484.554,230.055l1.873,2.765,1.458-3.005Zm41.121-81.4q.668.338,1.32.694l.278-.508q-.661-.361-1.336-.7Zm3.881,2.2q1.265.8,2.46,1.674l.341-.467q-1.211-.883-2.492-1.695Zm4.805,3.506q1.145.956,2.218,1.98l.4-.419q-1.085-1.036-2.246-2.006Zm4.3,4.1q1.01,1.1,1.939,2.257l.451-.362q-.942-1.171-1.964-2.286Zm3.725,4.635q.855,1.22,1.626,2.491l.494-.3q-.781-1.286-1.647-2.522Zm3.086,5.083q.689,1.319,1.289,2.68l.529-.232q-.607-1.378-1.3-2.716Zm2.4,5.44q.51,1.4.929,2.826l.555-.163q-.423-1.445-.94-2.861Zm1.673,5.706q.325,1.451.554,2.923l.571-.09q-.233-1.489-.561-2.959Zm.916,5.875q.134,1.48.169,2.971l.578-.014q-.036-1.51-.171-3.009Zm.142,5.943q-.061,1.484-.222,2.967l.576.062q.161-1.5.224-3.005Zm-.639,5.912q-.255,1.459-.61,2.91l.562.138q.357-1.47.618-2.947Zm-1.41,5.776q-.446,1.411-.987,2.807l.539.209q.548-1.412,1-2.843Zm-2.154,5.542q-.312.673-.65,1.341l.516.261q.342-.677.658-1.358Zm-.65,1.341q-.338.668-.694,1.32l.508.278q.361-.661.7-1.336Zm-2.2,3.881q-.8,1.265-1.674,2.46l.467.341q.883-1.211,1.695-2.492Zm-3.506,4.805q-.956,1.145-1.98,2.218l.419.4q1.036-1.084,2.006-2.246Zm-4.1,4.3q-1.1,1.01-2.257,1.939l.362.451q1.171-.942,2.286-1.964Zm-4.635,3.725q-1.22.855-2.491,1.626l.3.494q1.286-.781,2.522-1.647Zm-5.082,3.086q-1.32.689-2.681,1.289l.232.529q1.378-.607,2.716-1.3Zm-5.441,2.4q-1.4.51-2.826.929l.163.555q1.445-.423,2.862-.94Zm-5.706,1.673q-1.451.324-2.923.554l.09.571q1.489-.232,2.959-.561Zm-5.875.916q-1.48.134-2.971.169l.014.578q1.51-.036,3.009-.171Zm-5.943.142q-1.484-.061-2.967-.222l-.062.576q1.5.161,3.005.224Zm-5.912-.639q-1.459-.255-2.91-.61l-.138.562q1.47.357,2.949.618Zm-5.776-1.41q-1.411-.446-2.807-.987l-.209.539q1.412.548,2.843,1Z" transform="translate(340.472 408.541)" fill="#e72d4b" stroke="#e72d4b" stroke-width="1"/><path d="M422.963,131.826l.155-3.336,2.811,1.8Zm2.425-3.983q.97-1.232,2.022-2.368l.425.392q-1.036,1.119-1.992,2.333Zm4.225-4.57q1.149-1.06,2.368-2.02l.359.455q-1.2.944-2.334,1.99Zm4.891-3.847q1.3-.866,2.657-1.622l.282.5q-1.338.746-2.619,1.6Zm5.435-3.031q1.418-.651,2.879-1.187l.2.543q-1.438.529-2.838,1.169Zm5.842-2.145q1.5-.422,3.028-.724l.112.567q-1.506.3-2.984.714Zm6.1-1.21q1.544-.182,3.1-.244l.023.578q-1.536.061-3.06.241Zm6.218-.244q1.553.061,3.1.245l-.068.574q-1.529-.18-3.06-.241Zm6.181.733q1.52.3,3.026.73l-.158.556q-1.482-.42-2.981-.718Zm5.986,1.7q1.451.538,2.873,1.2l-.243.524q-1.4-.649-2.832-1.179Zm5.646,2.615q.677.382,1.344.79l-.3.494q-.658-.4-1.324-.78Zm1.344.79q.633.39,1.248.8l-.32.481q-.606-.4-1.231-.787Zm3.653,2.532q1.178.918,2.27,1.908l-.389.428q-1.076-.975-2.236-1.879Zm4.389,3.979q1.024,1.081,1.957,2.226l-.449.366q-.918-1.128-1.928-2.193Zm3.742,4.592q.848,1.22,1.6,2.494l-.5.294q-.741-1.255-1.579-2.457Zm3.011,5.1q.658,1.331,1.212,2.7l-.537.216q-.546-1.352-1.194-2.665Zm2.219,5.492q.453,1.412.8,2.854l-.563.135q-.34-1.421-.786-2.813Zm1.381,5.761q.236,1.461.365,2.941l-.576.05q-.127-1.456-.361-2.9Zm.511,5.9q.009.741-.01,1.483l-.578-.015q.019-.73.01-1.461Z" transform="translate(330.817 403)" fill="#e72d4b" stroke="#e72d4b" stroke-width="1"/><circle cx="8.841" cy="8.841" r="8.841" transform="translate(777.613 548.946)" fill="none" stroke="#fff" stroke-width="1"/><path d="M470.812,192.748v-9.61l10.38-5,.724-1.749-3.806-10.872,6.8-6.795,10.871,3.8,1.75-.724,5-10.379h9.609l5,10.379,1.75.724,10.871-3.8,6.8,6.795-3.806,10.872.725,1.749,10.378,5v9.61l-10.378,5-.725,1.749,3.806,10.872-6.8,6.795-10.871-3.8-1.75.724-5,10.379h-9.609l-5-10.379-1.75-.724-10.871,3.8-6.8-6.795,3.806-10.872-.724-1.749Z" transform="translate(338.318 409.056)" fill="none" stroke="#fff" stroke-width="1"/><path d="M432.809,148.5l3.005-7.246-5.965-10.781,2.732-2.737,10.811,5.91,7.277-2.927m28.415,28.457-3,7.248,5.964,10.781-2.737,2.732L468.5,174.029l-7.275,2.932m.059-46.263,7.246,3,10.781-5.964,2.737,2.732-5.91,10.811,2.927,7.277M450.61,176.974l-7.248-3-10.781,5.965-2.732-2.737,5.91-10.811-2.931-7.275m43.257-17.866,3,7.248,11.841,3.4,0,3.868L479.1,159.236l-3.077,7.216m-40.214-.03-3-7.246-11.841-3.4,0-3.868,11.823-3.465,3.071-7.218m32.669,32.755-7.247,3-3.406,11.841-3.867,0-3.466-11.823-7.216-3.076m.03-40.214,7.246-3.005,3.406-11.841,3.867,0,3.465,11.823,7.218,3.072" transform="translate(330.504 403.951)" fill="none" stroke="#fff" stroke-width="1"/></g></svg>