<svg xmlns="http://www.w3.org/2000/svg" width="129" height="129" viewBox="0 0 129 129"><g transform="translate(-1481.438 -525.117)"><circle cx="64" cy="64" r="64" transform="translate(1481.938 525.617)" fill="none" stroke="#fff" stroke-width="1"/><path d="M1185.445,130.924a64.026,64.026,0,0,0,8.44,115.393m-8.44-115.393a63.7,63.7,0,0,1,31.55-8.307,64.626,64.626,0,0,1,7.115.39m-38.664,7.917c-.6,2.268-2.316,7.248-4.441,9.027-2.674,2.221-4.453,14.222-1.779,15.555s2.662,1.777,6.219,6.667,6.661,2.222,9.776,3.111.9,4.888,5.777,4.888,1.779,6.223,8.893,6.223,6.661,4.444,4.441,5.334-4.441,7.111-4.441,9.778,6.661,17.778,12,19.111-.191,7.892-.9,12.889c-.931,6.712-8,14.222-4,16.889,3.2,2.133,6.076,1.777,7.115,1.333-.883-1.333-2.137-3.912,0-3.556,2.674.445,2.22-5.332,4-5.332s8.451-4.889,10.672-7.112,13.776-8.444,13.776-12.889,6.219-2.221,6.219-9.778,8-.889,6.219-8-16-6.222-15.554-9.778a7.431,7.431,0,0,0-8-8c-5.336.444-6.219-4.889-13.334-5.333s-8.881,0-12.892,1.333-13.776-2.667-10.218-5.334-7.556.888-4.441-2.223,4.882-8.888,2.22-7.555-6.661,7.555-8.893,4-4.441-8,.9-10.667,12.892-4,13.776-1.333,2.22,4.889,3.557,4.444-3.116-6.222-1.337-6.667c4-2.222,12.892-2.667,13.334-8s5.336-.889,7.115-3.556,5.336,3.111,4.441-2.667-8.44-4.444-8.44-7.111c0-2.133-2.077-3.295-3.116-3.61m0,0A63.924,63.924,0,0,1,1268,147.95m0,0c.179,4,1.086,12.444,3.223,14.223,2.662,2.222,8,8,4,11.111s-6.673,5.332-3.116,5.332a4.3,4.3,0,0,1,4.441,4c0,.711,2.853-.141,4.285-.657M1268,147.95a63.675,63.675,0,0,1,12.833,34.01m0,0c.108,1.537.167,3.091.167,4.657a64.01,64.01,0,0,1-57.776,63.7m-29.341-4a63.9,63.9,0,0,0,23.11,4.3q3.151,0,6.231-.3m-29.341-4c7.114-.247,22.943.207,29.341,4m-15.554-92.591c3.1-.444,4-.888,7.544.889s4.011,2.667.454,2.667S1203.661,158.083,1207.672,157.728Zm12.88,3.556c0-.889,4.453-1.777,4.894-.889S1220.552,162.173,1220.552,161.284Zm10.672,8c-1.779-1.333-1.337-2.667,0-2.667S1233,170.618,1231.224,169.284Zm9.335-36.889c2.662,1.779,13.334,1.779,7.556,0C1243.484,130.973,1241.144,131.8,1240.559,132.395Zm-57.776,49.334c1.325,0,1.421,2.133,0,1.777C1182.783,183.506,1181.446,181.729,1182.783,181.729Zm-20.89-20.445c-2.232,0-3.474,15.645-1.337,10.667,2.662-6.223,6.219-3.112,5.778-5.334C1165.976,164.84,1164.114,161.284,1161.893,161.284Z" transform="translate(328.942 403)" fill="none" stroke="#fff" stroke-width="0.5"/><path d="M1194.856,182.149a1.48,1.48,0,1,1-1.48-1.48A1.483,1.483,0,0,1,1194.856,182.149Zm39.106,16.889a1.48,1.48,0,1,1-1.48-1.48A1.476,1.476,0,0,1,1233.962,199.038Zm-24.889-56.889a1.48,1.48,0,1,1-1.48-1.479A1.476,1.476,0,0,1,1209.073,142.149Zm-19.553,4.444a1.48,1.48,0,1,1-1.48-1.479A1.484,1.484,0,0,1,1189.52,146.593Zm8.881-17.778a1.474,1.474,0,1,1-1.468-1.479A1.473,1.473,0,0,1,1198.4,128.815Zm79.12,48a1.48,1.48,0,1,1-1.48-1.48A1.484,1.484,0,0,1,1277.521,176.816Zm-40,63.111a1.48,1.48,0,1,1-1.48-1.479A1.483,1.483,0,0,1,1237.519,239.926Zm-51.557-16.889a1.48,1.48,0,1,1-1.48-1.479A1.484,1.484,0,0,1,1185.963,223.037Zm-22.752-58.5a1.48,1.48,0,1,1-1.48-1.479A1.483,1.483,0,0,1,1163.21,164.538Z" transform="translate(330.347 403.914)" fill="none" stroke="#e72d4b" stroke-width="1"/></g></svg>