<svg xmlns="http://www.w3.org/2000/svg" width="91" height="91" viewBox="0 0 91 91"><g transform="translate(9009.001 -1163)" opacity="0.648"><path d="M25.848,50.941h0l1.821-12.094,5.644,10.868a25.359,25.359,0,0,1-7.463,1.227Zm-.727,0h0c-.381,0-.788-.015-1.244-.044l-.959-12.858,2.311-3.918,1.9,3.657-2,13.164Zm-1.943-.1h0a25.393,25.393,0,0,1-6.861-1.592l5.97-10.147.892,11.737Zm10.8-1.352h0L27.85,37.658l.615-4.072,3.452,2.97,3.226,12.491c-.27.111-.549.215-.818.315l-.006,0-.34.128ZM15.66,48.984h0c-.4-.166-.78-.337-1.137-.508l4.016-12.7,3.315-2.442.342,4.537L15.66,48.983Zm20.154-.223h0l-2.962-11.4,8.938,7.663a25.453,25.453,0,0,1-5.975,3.736Zm-21.945-.6h0A25.487,25.487,0,0,1,7.72,43.75l9.85-7.256-3.7,11.666Zm28.458-3.594h0l-9.771-8.393-1.138-4.4,3.927,1.244,7.895,10.706c-.282.282-.572.551-.911.846ZM7.22,43.243h0c-.285-.286-.554-.576-.846-.911l8.407-9.781,4.4-1.129-1.244,3.927-10.714,7.9Zm36.527-.03h0l-7.258-9.849,11.67,3.7a25.446,25.446,0,0,1-4.41,6.145ZM5.907,41.784h0A25.5,25.5,0,0,1,2.18,35.817l11.4-2.944-7.675,8.91Zm16.905-4.978v0l-.3-3.962,1.473-1.087.843,1.628L22.814,36.8Zm4.476-.209,0,0L25.637,33.41l.879-1.488,1.313,1.128-.54,3.543Zm21.185-.172h0L35.775,32.4l-2.442-3.3,4.536-.342,11.113,6.535c-.147.357-.313.727-.508,1.133ZM31.6,35.374l0,0L28.587,32.78l.273-1.823,1.747.555.994,3.858ZM1.91,35.148h0c-.114-.277-.22-.561-.323-.836l-.122-.325,11.819-6.131,4.072.617-2.97,3.449L1.911,35.148Zm17-.52v0l1.084-3.419,1.657-.428.128,1.726-2.868,2.121Zm30.339,0h0L39.1,28.664l11.737-.891a25.339,25.339,0,0,1-1.593,6.854ZM1.227,33.321h0A25.255,25.255,0,0,1,0,25.857l12.1,1.821L1.228,33.321Zm24.03-.659v0l-.691-1.332.686-.505.722.621-.715,1.217Zm2.694-.437h0l-1.068-.92.484-.822.811.258-.225,1.484Zm6.669-.185h0L31.21,30.963l-.445-1.682,1.725-.128,2.128,2.885Zm-12.167-.033v0L22.346,30.6l.921-.238.392.755-1.2.89Zm-6.876-.4,0,0,2.6-3.012,1.812.276-.555,1.744-3.858.994Zm10.788-.8h0l-.5-.433.386-.282.454.146-.337.569ZM30.4,30.7h0l-1.43-.453.128-.84.95-.071L30.4,30.7Zm-6.134-.02h0L24,30.17l.408-.107.324.276-.466.344Zm-4.036-.268v0l.453-1.43.84.128.071.951-1.364.353Zm8.085-.4h0l-.548-.175.213-.365.422-.033-.086.573Zm-5.992-.143h0l-.05-.658.472.071.219.425-.64.163Zm3.024-.909h0l-.662-.1-.636-.2-.594-.359-.535-.458-.4-.537-.3-.594-.176-.68-.053-.7.1-.66.2-.639.356-.594.46-.534.535-.4.594-.3.68-.176.7-.053.663.1.633.2.609.356.532.461.4.538.3.593.179.681.05.7-.1.666-.208.627-.359.594-.463.543-.538.4-.594.3-.68.175-.7.05Zm.122-4.432h0a.961.961,0,0,0-.675.279.961.961,0,1,0,.678-.279ZM29.2,28.691h0l.071-.471L29.7,28l.166.641-.661.051Zm1.379-.1h0l-.237-.92.757-.392.891,1.206-1.41.107Zm2.239-.169h0l-1.086-1.473L33.36,26.1l3.425,2.02-3.965.3ZM21.47,28.391h0L20.9,28.3l.176-.55.365.214.03.421ZM20.193,28.2h0l-1.485-.225.921-1.072.82.484-.255.813Zm17.836-.169v0h0l-3.92-2.309,3.657-1.9L50.93,25.815c0,.378-.014.773-.044,1.245Zm-20.151-.169h0l-3.546-.538,3.191-1.664,1.485.892-1.129,1.31Zm-4.735-.728L0,25.123c0-.388.015-.793.044-1.241L12.9,22.913l3.9,2.323-3.659,1.894Zm17.047-.189h0l-.107-.406.279-.324.339.467-.51.264Zm-9.5-.238h0l-.569-.338.434-.5.282.384-.145.457Zm10.646-.356h0l-.508-.686.621-.722,1.218.719-1.33.689ZM19.5,25.991h0l-1.214-.715,1.333-.69.505.684-.623.721Zm13.9-.7h0L31.922,24.4l1.128-1.313,3.535.555L33.4,25.289Zm-3-.2h0l-.281-.385.146-.454.57.335-.433.5Zm20.532,0h0L38.835,23.269,49.7,17.626a25.276,25.276,0,0,1,1.227,7.461ZM17.551,24.85h0L14.13,22.833l3.966-.3,1.084,1.473-1.627.84Zm3.048-.13h0l-.344-.463.514-.268.107.411-.275.32Zm10.7-.69h0l-.837-.471.259-.812,1.485.226L31.3,24.029Zm-11.484-.368h0l-.89-1.208,1.408-.1.241.921-.757.392ZM.1,23.181h0A25.376,25.376,0,0,1,1.69,16.316L11.837,22.29.1,23.181Zm29.76,0h0l-.361-.213-.033-.422.57.086-.174.548Zm7.788-.089v0h0l-4.064-.636L36.553,19l12.476-3.226c.112.271.216.551.317.822.043.114.085.228.128.343Zm-16.423-.152h0l-.167-.64.663-.051-.071.472-.423.22Zm11.524-.588h0l-1.811-.276.555-1.747,3.861-.992-2.605,3.015ZM13.07,22.2,1.951,15.651c.159-.381.33-.762.508-1.135l12.7,4.03,2.448,3.31L13.07,22.2Zm17.18-.252h0l-.841-.127-.073-.951,1.369-.351-.454,1.428ZM18.422,21.8h0l-2.129-2.889,3.422,1.087.43,1.675-1.722.127Zm10.265-.074h0l-.471-.074L28,21.226l.641-.166.05.66ZM20.876,21.6h0l-.35-1.365,1.429.454-.128.84-.95.071Zm1.681-.106h0l.089-.57.55.176-.214.362-.424.033Zm4-.621h0l-.324-.279.467-.342.268.514-.409.107Zm-1.839-.036h0l-.456-.146.338-.57.5.431-.383.285Zm2.95-.252h0l-.392-.757,1.209-.892.1,1.411-.92.237Zm-4.109-.131h0l-.81-.258.226-1.485,1.068.924-.484.818Zm5.724-.288h0l-.127-1.721,2.89-2.13-1.088,3.422-1.674.431Zm-3.609-.05h0l-.721-.621.716-1.217.693,1.333-.686.5Zm-3.608-.134h0l-1.745-.554-.992-3.862,3.012,2.594-.273,1.822Zm9.683-.445v0l1.245-3.924,10.719-7.9c.306.305.583.6.846.915L36.146,18.4l-4.4,1.137Zm-4.812-.351h0l-.843-1.623,2.02-3.426.3,3.966-1.472,1.083Zm-7.411,0h0l-3.925-1.244L7.7,7.224c.305-.305.6-.582.912-.847l9.761,8.4,1.152,4.4Zm4.883-.169h0l-1.309-1.128.537-3.565,1.652,3.187-.878,1.5Zm12.95-.924,0,0L45.03,9.179a25.509,25.509,0,0,1,3.728,5.953v.015l-11.4,2.943Zm-8.284-.472v0l-.342-4.534L35.264,1.966c.374.156.746.322,1.137.508l-4.016,12.7-3.313,2.443Zm-14.623-.039h0L2.78,13.875A25.559,25.559,0,0,1,7.191,7.728l7.254,9.847Zm8.012-.211h0L19.007,14.4,15.787,1.9c.373-.15.732-.284,1.161-.442l6.125,11.836-.614,4.071Zm3.256-.547v0l-1.895-3.655L25.815,0c.439,0,.875.024,1.244.047l.948,12.865-2.291,3.907Zm7.64-2.361v0l3.7-11.665A25.485,25.485,0,0,1,43.2,7.2l-9.846,7.258Zm-15.283-.868,0,0L9.16,5.92a25.482,25.482,0,0,1,5.977-3.728l2.933,11.4Zm5.184-1.485,0,0L17.611,1.236A25.482,25.482,0,0,1,25.075.009l-1.82,12.1Zm5.382-.262v0L27.746.11a25.358,25.358,0,0,1,6.879,1.583L28.639,11.843Z" transform="translate(-8988.968 1183.026)" fill="#fff"/><path d="M45.5,91A45.512,45.512,0,0,1,27.79,3.576,45.512,45.512,0,0,1,63.211,87.424,45.213,45.213,0,0,1,45.5,91Zm-.4-6.788h0l2.4,1.215-.44-2.537,1.963-1.777-2.688-.392-1.185-2.314L43.92,80.7l-2.694.347,1.934,1.809-.481,2.531L45.1,84.213ZM61,80.85h0l2.4,1.215-.437-2.534,1.96-1.779-2.688-.392L61.05,75.046l-1.224,2.292-2.694.348L59.066,79.5l-.481,2.527L61,80.85Zm-31.065-.3h0l2.4,1.215-.44-2.534,1.963-1.779-2.689-.392-1.184-2.314-1.221,2.293-2.694.348L28,79.2l-.478,2.528,2.414-1.176ZM45.442,17.991h0A27.42,27.42,0,1,0,56.15,20.153a27.336,27.336,0,0,0-10.708-2.161ZM72.955,71.556h0l2.4,1.214-.44-2.537,1.961-1.776-2.689-.392-1.182-2.314-1.224,2.292-2.693.348L71.021,70.2l-.481,2.53,2.415-1.175Zm-54.9-.149h0l2.4,1.215-.437-2.537,1.96-1.777-2.689-.392L18.111,65.6,16.887,67.9l-2.694.348,1.934,1.808-.481,2.531,2.414-1.176ZM84.625,40.5v0L78.9,42.179l.137,1.123,5.979.259-5.857.719.2,1.657L86.9,45.01l-.332-2.7-3.8-.042,3.674-.948-.332-2.7-7.539.918.2,1.666ZM6.5,40.552a2.1,2.1,0,0,0-1.321.469,2.61,2.61,0,0,0-.354,3.2,2.127,2.127,0,0,0,1.58.8l3.428.359a2.134,2.134,0,0,0,1.666-.454,2.5,2.5,0,0,0,.327-3.226,2.14,2.14,0,0,0-1.523-.763l-.956-.1-.179,1.72,1.108.116a1.351,1.351,0,0,1,.416.107.505.505,0,0,1,.017.832,1.045,1.045,0,0,1-.544.059l-3.734-.4A1.482,1.482,0,0,1,6,43.16a.448.448,0,0,1-.2-.461.437.437,0,0,1,.3-.41,1.292,1.292,0,0,1,.44,0l.849.086.182-1.72-.7-.071A2.1,2.1,0,0,0,6.5,40.552Zm-.329-5.906-.615,2.21,6.951,3.369.464-1.672-1.254-.532.324-1.161,1.343.2.484-1.747Zm76.615-2.612a2.108,2.108,0,0,0-.805.159l-3.268,1.093a2.14,2.14,0,0,0-1.327,1.091,2.5,2.5,0,0,0,1.037,3.071,2.129,2.129,0,0,0,1.705.062L83.4,36.417a2.116,2.116,0,0,0,1.357-1.1,2.312,2.312,0,0,0,.018-1.711,2.258,2.258,0,0,0-1.022-1.345A2.13,2.13,0,0,0,82.791,32.034ZM8.252,29.294,7.429,31l6.832,3.3.722-1.509-4.224-2.059,4.838.782.817-1.694-6.832-3.3-.727,1.509L12.88,30Zm71.807-3.518a2.131,2.131,0,0,0-1.13.324L75.9,27.74a2.135,2.135,0,0,0-1.138,1.295,2.513,2.513,0,0,0,1.551,2.852A2.146,2.146,0,0,0,78,31.655l.843-.454-.82-1.524-.981.529a1.349,1.349,0,0,1-.407.148l-.045,0a.44.44,0,0,1-.4-.254.434.434,0,0,1-.039-.415,1.006,1.006,0,0,1,.416-.354l3.3-1.782A1.423,1.423,0,0,1,80.3,27.4h.017a.446.446,0,0,1,.409.268.435.435,0,0,1,0,.508,1.471,1.471,0,0,1-.359.255l-.752.407.82,1.53.614-.333a2.1,2.1,0,0,0,1.15-1.313,2.3,2.3,0,0,0-.273-1.687,2.268,2.268,0,0,0-1.238-1.161A2.125,2.125,0,0,0,80.059,25.776ZM12.675,24.408h0l5,3.531,1-1.411-5.011-3.535.648-.915-1.188-.843-2.285,3.241,1.188.846.644-.914Zm61.019.813-1.416,1.025.915,1.263,1.416-1.025ZM71.88,20.79h0l.222.234a.552.552,0,0,1,0,.906l-.891.84-.3.3a4.343,4.343,0,0,0-.383.416,1.124,1.124,0,0,0-.223.418L71.5,25.144a.7.7,0,0,1,.229-.44,2.089,2.089,0,0,1,.145-.163l.152-.142.392-.372.974-.921a1.185,1.185,0,0,0,.389-.749,1.1,1.1,0,0,0-.193-.822,1.356,1.356,0,0,0,1.078.178,2.713,2.713,0,0,0,.915-.636,1.73,1.73,0,0,0,.684-1.357,2.736,2.736,0,0,0-.853-1.485l-1.574-1.658L68.322,21.8,69.5,23.047l2.375-2.257ZM15.814,18.17l-1.207,1.238,5.448,5.3,1.207-1.238-2.32-2.254.7-.716,2.317,2.257,1.218-1.241-5.456-5.3-1.207,1.238,2.037,1.984-.692.713-2.04-1.981ZM68.23,12.108l-3.294,4.431a2.131,2.131,0,0,0-.475,1.652A2.5,2.5,0,0,0,66.9,20.124c.058,0,.115,0,.175-.006a2.142,2.142,0,0,0,1.436-.924l3.282-4.432L70.4,13.732,67.1,18.188c-.193.258-.346.4-.467.427a.479.479,0,0,1-.388-.1c-.193-.143-.27-.28-.229-.408a1.651,1.651,0,0,1,.3-.51l3.306-4.455L68.23,12.108h0Zm-45.281.418a2.314,2.314,0,0,0-1.437.5,2.249,2.249,0,0,0-.978,1.378,2.12,2.12,0,0,0,.458,1.705l2.022,2.8a2.134,2.134,0,0,0,1.438.941c.057,0,.117.007.182.007a2.505,2.505,0,0,0,2.437-1.914,2.146,2.146,0,0,0-.448-1.648L24.6,13.5a2.1,2.1,0,0,0-1.452-.966C23.083,12.529,23.015,12.526,22.949,12.526Zm6.209-3.5a3.289,3.289,0,0,0-1.373.393l-2.056,1,3.321,6.832,1.548-.754-1.429-2.952.3-.14a.686.686,0,0,1,.52-.083.67.67,0,0,1,.345.359l.531,1.1c.025.042.057.1.093.178s.061.124.1.193a4.793,4.793,0,0,0,.282.493,1.157,1.157,0,0,0,.333.339l1.538-.749a.707.707,0,0,1-.35-.351,1.394,1.394,0,0,1-.11-.186l-.032-.065c-.019-.039-.04-.08-.06-.125l-.235-.484-.594-1.207a1.2,1.2,0,0,0-.594-.594,1.128,1.128,0,0,0-.844-.065,1.341,1.341,0,0,0,.5-.975,2.759,2.759,0,0,0-.327-1.064A1.747,1.747,0,0,0,29.466,9.06,1.373,1.373,0,0,0,29.158,9.027Zm33.681.249a2.289,2.289,0,0,0-.545.066,2.141,2.141,0,0,0-1.3,1.188l-1.544,3.083a2.134,2.134,0,0,0-.179,1.718,2.5,2.5,0,0,0,2.9,1.443,2.13,2.13,0,0,0,1.254-1.155l1.547-3.084a2.093,2.093,0,0,0,.185-1.734,2.682,2.682,0,0,0-2.316-1.525ZM33.821,7.057h0l-1.646.532,2.338,7.23,1.646-.532-2.338-7.23Zm22.1-.436-.44,1.4,1.069.335-1.833,5.851,1.651.517L58.2,8.872l1.069.336.44-1.4ZM37.679,6.107h0l-1.735.318,2.5,7.268,2.1-.385L40.433,5.6l-1.705.312.389,5.421L37.679,6.107Zm12.8,3.876h0l.317.044a.551.551,0,0,1,.555.716l-.179,1.21c-.014.092-.028.221-.047.385l0,.028a4.677,4.677,0,0,0-.047.567,1.158,1.158,0,0,0,.083.467l1.693.249a.709.709,0,0,1-.089-.487,1.352,1.352,0,0,1,0-.216c0-.017.007-.034.011-.051a.715.715,0,0,0,.022-.157l.077-.531.19-1.334a1.186,1.186,0,0,0-.155-.828,1.123,1.123,0,0,0-.66-.529,1.334,1.334,0,0,0,.956-.526,2.721,2.721,0,0,0,.329-1.064,1.725,1.725,0,0,0-.3-1.485,2.712,2.712,0,0,0-1.592-.647l-2.258-.333-1.111,7.518L50,13.23l.482-3.246ZM46.62,5.317l-3.844.077.152,7.6,3.93-.08-.03-1.465-2.2.044L44.6,9.8l1.85-.039L46.418,8.3l-1.851.039-.033-1.509,2.116-.044ZM10.468,37.492h0L7.008,36.069l3.688.594-.228.828Zm68.541-1.5h0a.5.5,0,0,1-.359-.742,1.03,1.03,0,0,1,.469-.276l3.565-1.188a1.3,1.3,0,0,1,.445-.077.507.507,0,0,1,.271.832,1.312,1.312,0,0,1-.4.19l-3.565,1.187A1.463,1.463,0,0,1,79.009,35.992ZM73.568,20.407a.542.542,0,0,1-.429-.209l-.3-.3L74.1,18.714l.229.219c.212.236.293.43.249.594a1.54,1.54,0,0,1-.392.484l-.3.268-.2.116A.544.544,0,0,1,73.568,20.407ZM25.032,18.4a.419.419,0,0,1-.12-.017,1.009,1.009,0,0,1-.407-.365l-2.2-3.041a1.386,1.386,0,0,1-.209-.4.444.444,0,0,1,.212-.455.431.431,0,0,1,.5-.05,1.378,1.378,0,0,1,.3.321l2.2,3.048a1.309,1.309,0,0,1,.2.383.434.434,0,0,1-.19.464A.423.423,0,0,1,25.032,18.4Zm36.243-2.969a.45.45,0,0,1-.219-.057.436.436,0,0,1-.27-.318,1.049,1.049,0,0,1,.137-.529l1.684-3.356a1.4,1.4,0,0,1,.255-.371.448.448,0,0,1,.5-.024.429.429,0,0,1,.279.425,1.321,1.321,0,0,1-.146.415l-1.681,3.357a1.407,1.407,0,0,1-.249.353A.448.448,0,0,1,61.275,15.429ZM28.62,12.38h0l-.757-1.555.306-.148a1,1,0,0,1,.419-.119.368.368,0,0,1,.207.056,1.569,1.569,0,0,1,.345.52l.163.374.047.229A.533.533,0,0,1,29,12.2l-.38.183ZM51.21,8.786a.535.535,0,0,1-.133-.017l-.416-.063.252-1.714.33.056c.3.039.487.14.553.3a1.588,1.588,0,0,1,0,.62l-.08.4-.087.217A.54.54,0,0,1,51.21,8.786Z" transform="translate(-9009.001 1163)" fill="#fff"/></g></svg>