<svg xmlns="http://www.w3.org/2000/svg" width="213.311" height="54.966" viewBox="0 0 213.311 54.966"><g transform="translate(-1096.251 -469.774)" opacity="0.653"><path d="M24.614,53.966A26.987,26.987,0,0,1,0,38.051a13.9,13.9,0,0,0,4.056-4.774,13.621,13.621,0,0,0,1.519-6.294,13.622,13.622,0,0,0-1.519-6.294A13.9,13.9,0,0,0,0,15.914a26.99,26.99,0,0,1,49.313.193,13.918,13.918,0,0,0-3.878,4.725,13.787,13.787,0,0,0,0,12.3,13.919,13.919,0,0,0,3.878,4.725,26.987,26.987,0,0,1-24.7,16.106ZM17.536,16.643a2.415,2.415,0,0,0-2.179,1.27l-1.519,2.85a.925.925,0,0,0,0,.87l9.836,18.513a2.415,2.415,0,0,0,2.179,1.272,2.444,2.444,0,0,0,2.187-1.284L29.521,37.3c0-.2,0-.372,0-.554V36.44l-9.8-18.522A2.443,2.443,0,0,0,17.536,16.643ZM12.621,27.7a4.363,4.363,0,1,0,4.357,4.364A4.365,4.365,0,0,0,12.621,27.7Zm17.461,2.1h0a1.911,1.911,0,0,1,1.659.946l1.44,2.424.094.159,1.534,2.583a.851.851,0,0,0,.751.436h.006l5.906-.034a.845.845,0,0,0,.732-.409.77.77,0,0,0,.017-.764L32.946,17.795a2.261,2.261,0,0,0-2.019-1.153,2.235,2.235,0,0,0-2.012,1.141l-3.318,6.1a1.581,1.581,0,0,0-.006,1.5l2.863,5.353a1.927,1.927,0,0,1,1.436-.93A1.9,1.9,0,0,1,30.082,29.8Z" transform="translate(1141.81 470.274)" fill="#fff" stroke="rgba(0,0,0,0)" stroke-miterlimit="10" stroke-width="1"/><path d="M1487.429,514.6V514.1a10.039,10.039,0,0,0,1.651-.2.773.773,0,0,0,.665-.838,3.947,3.947,0,0,0-.665-1.356q-.665-1.059-1.577-2.44t-1.922-2.834q-1.011-1.453-1.75-2.44-.789-1.084-1.429-1.084a3.032,3.032,0,0,0-.419.025,1.235,1.235,0,0,0-.37.123v9.661a.929.929,0,0,0,.247.69,1.52,1.52,0,0,0,.641.37,4.391,4.391,0,0,0,.887.172q.492.05.986.148v.493h-9.808V514.1a10.324,10.324,0,0,0,2.045-.37,1.155,1.155,0,0,0,.912-1.208V484.679a3.06,3.06,0,0,0-.049-.616.9.9,0,0,0-.395-.468,9.355,9.355,0,0,0-1.059-.616q-.715-.369-1.355-.715v-.3l6.555-3.007h.394v23.56q1.429-1.183,3.105-2.686t3.1-2.908q1.429-1.4,2.366-2.464t.936-1.4a.652.652,0,0,0-.394-.567,4.019,4.019,0,0,0-.986-.37,12.944,12.944,0,0,0-1.281-.247,9.159,9.159,0,0,0-1.281-.1v-.493h12.075v.493c-.1,0-.411.025-.936.074a12.322,12.322,0,0,0-1.849.345,17.673,17.673,0,0,0-2.267.764,8.186,8.186,0,0,0-2.242,1.38q-1.578,1.331-3.105,2.735T1486,499.712q2.168,3.3,4.091,6.186t3.352,4.757a16.778,16.778,0,0,0,2.908,3.154,10.579,10.579,0,0,0,1.232.2,15.06,15.06,0,0,0,1.774.1v.493Z" transform="translate(-262.277 -6.023)" fill="#fff"/><path d="M1571.619,535.713a12.55,12.55,0,0,1-2.443,3.81,11.055,11.055,0,0,1-3.57,2.54,10.393,10.393,0,0,1-4.289.91,12.247,12.247,0,0,1-3.881-.671,10.992,10.992,0,0,1-3.714-2.132,11.109,11.109,0,0,1-2.779-3.737,12.355,12.355,0,0,1-1.078-5.343,11.21,11.21,0,0,1,.839-4.265,11.384,11.384,0,0,1,10.709-7.14,11.465,11.465,0,0,1,7.452,2.851,11.08,11.08,0,0,1,2.636,3.546,11.4,11.4,0,0,1,1.03,5.008A11.88,11.88,0,0,1,1571.619,535.713Zm-3.905-8.17a12.757,12.757,0,0,0-1.174-3.45,7.683,7.683,0,0,0-2.156-2.612,5.271,5.271,0,0,0-3.306-1.03,4.514,4.514,0,0,0-2.827.958,8.285,8.285,0,0,0-2.133,2.516,13.044,13.044,0,0,0-1.342,3.5,17.255,17.255,0,0,0-.455,3.953,21.7,21.7,0,0,0,.383,4.169,11.328,11.328,0,0,0,1.246,3.474,6.94,6.94,0,0,0,2.2,2.4,5.687,5.687,0,0,0,3.211.886,4.556,4.556,0,0,0,3.139-1.126,8.511,8.511,0,0,0,2.061-2.827,15.116,15.116,0,0,0,1.15-3.666,20.292,20.292,0,0,0,.36-3.642A18.55,18.55,0,0,0,1567.714,527.543Z" transform="translate(-314.48 -34.255)" fill="#fff"/><path d="M1644.52,542.829V542.3a10.879,10.879,0,0,0,2.06-.311.941.941,0,0,0,.767-.982V528.932a8.419,8.419,0,0,0-1.054-4.48,3.844,3.844,0,0,0-3.546-1.7,4.817,4.817,0,0,0-2.635.671,14.392,14.392,0,0,0-2.348,1.965V541.1a1.234,1.234,0,0,0,.335.695,1.431,1.431,0,0,0,.575.311,3.435,3.435,0,0,0,.767.12,6.641,6.641,0,0,1,.91.12v.479H1631.1v-.479a6.234,6.234,0,0,0,1.893-.432,1.139,1.139,0,0,0,.791-1.1V524.332a1.743,1.743,0,0,0-.072-.575,1.1,1.1,0,0,0-.408-.431q-.431-.239-1.006-.551a12.705,12.705,0,0,0-1.15-.552v-.287l6.277-2.252h.288v5.175l.1.048a17.383,17.383,0,0,1,1.313-1.749,11.331,11.331,0,0,1,1.79-1.7,10.022,10.022,0,0,1,2.2-1.27,6.326,6.326,0,0,1,2.483-.5,4.916,4.916,0,0,1,4.25,2.06,8.906,8.906,0,0,1,1.48,5.319v14.088a.706.706,0,0,0,.311.575,2.132,2.132,0,0,0,.743.359,7.419,7.419,0,0,0,.934.192q.5.072.934.12v.431Z" transform="translate(-370.8 -34.255)" fill="#fff"/><path d="M1734.773,523.59a1.592,1.592,0,0,1-1.222.551,2.52,2.52,0,0,1-.862-.24q-.576-.239-1.27-.575t-1.414-.743q-.718-.406-1.294-.742l-.192.191q.719,1.1,1.222,2.061a5.355,5.355,0,0,1,.5,2.491,6.534,6.534,0,0,1-2.635,5.679,12.291,12.291,0,0,1-7.284,1.893,9.889,9.889,0,0,1-1.366-.1,12.376,12.376,0,0,0-1.653-.1,4.81,4.81,0,0,0-2.444.719,1.857,1.857,0,0,0-.911,1.581,1.766,1.766,0,0,0,.479,1.269,3.333,3.333,0,0,0,1.2.791,6.011,6.011,0,0,0,1.582.383,15.035,15.035,0,0,0,1.677.1h7.667a8.2,8.2,0,0,1,3.019.527,7.046,7.046,0,0,1,2.3,1.437,6.258,6.258,0,0,1,1.461,2.085,6.561,6.561,0,0,1,.5,2.611,7.312,7.312,0,0,1-.935,3.57,9.651,9.651,0,0,1-2.611,2.995,13.05,13.05,0,0,1-3.953,2.036,16.079,16.079,0,0,1-5.008.742,17.4,17.4,0,0,1-8.122-1.557,4.747,4.747,0,0,1-2.9-4.289,3.171,3.171,0,0,1,.551-1.821,8.274,8.274,0,0,1,1.39-1.557,14.113,14.113,0,0,1,1.869-1.39q1.03-.647,2.036-1.27v-.1a7.038,7.038,0,0,1-3.762-1.39,3.817,3.817,0,0,1-.886-4.648,5.22,5.22,0,0,1,1.2-1.485,7.006,7.006,0,0,1,1.8-1.126,7.767,7.767,0,0,1,2.228-.6v-.143a7.19,7.19,0,0,1-3.283-2.4,6.57,6.57,0,0,1-1.174-4.025,6.158,6.158,0,0,1,.7-2.875,7.088,7.088,0,0,1,1.94-2.324,9.754,9.754,0,0,1,2.947-1.557,11.536,11.536,0,0,1,3.714-.575,14.132,14.132,0,0,1,3.234.335,12.485,12.485,0,0,1,2.948,1.15,5.025,5.025,0,0,0,.983.24,8.531,8.531,0,0,0,.982.048,2.958,2.958,0,0,0,1.03-.168,5.825,5.825,0,0,0,.839-.383,6.433,6.433,0,0,1,.814-.383,2.774,2.774,0,0,1,1.007-.168,1.74,1.74,0,0,1,1.341.575,1.985,1.985,0,0,1,.527,1.389A1.827,1.827,0,0,1,1734.773,523.59Zm-4.72,21.444a3.231,3.231,0,0,0-1.39-1.39,8.463,8.463,0,0,0-2.635-.743,34.108,34.108,0,0,0-4.36-.215q-1.007,0-2.061.1t-1.725.191a5.169,5.169,0,0,0-3.115,1.821,4.7,4.7,0,0,0-.862,2.731,4.432,4.432,0,0,0,.839,2.683,7.555,7.555,0,0,0,2.085,1.941,9.669,9.669,0,0,0,2.66,1.174,10.025,10.025,0,0,0,2.611.384,18.221,18.221,0,0,0,2.468-.144,9.523,9.523,0,0,0,1.845-.432,7.544,7.544,0,0,0,2.947-2.156,5.285,5.285,0,0,0,1.27-3.546A4.75,4.75,0,0,0,1730.053,545.033Zm-3.977-20.8a6.017,6.017,0,0,0-.983-1.941,4.785,4.785,0,0,0-1.629-1.342,4.929,4.929,0,0,0-2.276-.5,4.249,4.249,0,0,0-2.156.551,4.91,4.91,0,0,0-1.606,1.485,7.077,7.077,0,0,0-.982,2.133,9.022,9.022,0,0,0-.335,2.444,6.974,6.974,0,0,0,1.461,4.625,4.488,4.488,0,0,0,3.57,1.749,4.425,4.425,0,0,0,2.276-.575,5.221,5.221,0,0,0,1.654-1.533,7.01,7.01,0,0,0,1.006-2.181,9.656,9.656,0,0,0,.335-2.564A8.044,8.044,0,0,0,1726.075,524.236Z" transform="translate(-425.714 -34.255)" fill="#fff"/><path d="M1420.1,533.273a16.45,16.45,0,0,1-.535,2.222,12.207,12.207,0,0,1-.779,1.885,10.944,10.944,0,0,1-1.048,1.641,11.429,11.429,0,0,1-1.36,1.465,11.221,11.221,0,0,1-10.471,2.4,10.22,10.22,0,0,1-2.77-1.187,12.038,12.038,0,0,1-5.5-12.542,12.916,12.916,0,0,1,.64-2.187,12.1,12.1,0,0,1,2.513-3.84,11.225,11.225,0,0,1,8.145-3.443,10.863,10.863,0,0,1,6.166,1.815,13.106,13.106,0,0,1,4.4,5.282l-14.87,8.237a4.366,4.366,0,0,1,.024-2.047,5.529,5.529,0,0,1,.919-1.885,6.622,6.622,0,0,1,2.316-1.861c.077-.047.22-.132.431-.256s.465-.271.768-.443l.988-.558,1.07-.605q1.279-.721,2.793-1.582a6.87,6.87,0,0,0-2.281-1.7,6.421,6.421,0,0,0-2.768-.581,6.71,6.71,0,0,0-5.143,2.28,8.013,8.013,0,0,0-2.1,5.631,7.929,7.929,0,0,0,2.1,5.608,6.681,6.681,0,0,0,5.143,2.3,8.016,8.016,0,0,0,3.23-.733A36.492,36.492,0,0,0,1420.1,533.273Z" transform="translate(-208.789 -34.255)" fill="#fff"/><path d="M1201.94,533.235a16.452,16.452,0,0,1-.535,2.222,12.24,12.24,0,0,1-.779,1.885,10.955,10.955,0,0,1-1.048,1.64,11.405,11.405,0,0,1-1.36,1.465,11.221,11.221,0,0,1-10.471,2.4,10.22,10.22,0,0,1-2.769-1.187,12.04,12.04,0,0,1-5.5-12.542,12.91,12.91,0,0,1,.64-2.187,12.086,12.086,0,0,1,2.513-3.839,11.225,11.225,0,0,1,8.145-3.444,10.862,10.862,0,0,1,6.166,1.815,13.106,13.106,0,0,1,4.4,5.282l-14.87,8.237a4.371,4.371,0,0,1,.024-2.047,5.531,5.531,0,0,1,.919-1.885,6.626,6.626,0,0,1,2.316-1.861c.077-.047.22-.132.431-.256s.464-.271.768-.443l.988-.558,1.07-.605q1.279-.721,2.793-1.582a6.871,6.871,0,0,0-2.281-1.7,6.421,6.421,0,0,0-2.768-.581,6.712,6.712,0,0,0-5.143,2.28,8.014,8.014,0,0,0-2.095,5.632,7.929,7.929,0,0,0,2.095,5.607,6.681,6.681,0,0,0,5.143,2.3,8.015,8.015,0,0,0,3.23-.733A36.488,36.488,0,0,0,1201.94,533.235Z" transform="translate(-57.543 -34.228)" fill="#fff"/><g transform="translate(1096.251 476.349)"><path d="M1126.7,491.234a5,5,0,0,0-1,.709q-.133.133-.377.421a5.51,5.51,0,0,0-.555.843q-.311.555-.732,1.4t-.954,2.129q-.888,2.129-1.952,4.768t-2.174,5.434q-1.109,2.795-2.2,5.611t-2.062,5.345l-2.173,4.435H1112q-1.464-3.592-2.728-6.853t-2.462-6.277q-1.2-3.015-2.307-5.833t-2.218-5.655q-.311-.843-.577-1.464t-.51-1.153q-.244-.532-.488-1.02l-.51-1.02a6.542,6.542,0,0,0-.4-.665,3.992,3.992,0,0,0-.732-.8,4.444,4.444,0,0,0-1.131-.688,4.8,4.8,0,0,0-1.686-.332v-.488h13.263v.443q-.223.045-.8.133a5.251,5.251,0,0,0-1.175.332,3.388,3.388,0,0,0-1.065.688,1.468,1.468,0,0,0-.466,1.109,8.619,8.619,0,0,0,.488,1.885q.487,1.487,1.264,3.593t1.752,4.613q.975,2.506,1.929,4.924t1.8,4.5q.842,2.085,1.331,3.415.221-.488.82-2.041t1.508-3.859q.909-2.306,2.018-5.234t2.307-6.121a30.068,30.068,0,0,0,1.153-3.7,10.192,10.192,0,0,0,.266-1.752,1.506,1.506,0,0,0-.444-1.109,3.543,3.543,0,0,0-1.109-.732,7.327,7.327,0,0,0-1.4-.444,10.245,10.245,0,0,0-1.309-.2v-.443h10.335v.488A4.854,4.854,0,0,0,1126.7,491.234Z" transform="translate(-1096.251 -490.081)" fill="#fff"/></g></g></svg>