<svg xmlns="http://www.w3.org/2000/svg" width="90.974" height="91" viewBox="0 0 90.974 91"><g transform="translate(302.596 -5.781)" opacity="0.651"><g transform="translate(-302.596 5.781)"><path d="M-263.373,5.9c3.507-.2,7.021-.012,10.532-.11a17.156,17.156,0,0,1,4.1.44,45.343,45.343,0,0,1,20.436,9.46c-2.149-.122-4.636.905-6.487-.575a42.151,42.151,0,0,0-27.84-6,42.474,42.474,0,0,0-24.505,12.106,42.459,42.459,0,0,0-12.212,25.366,43.029,43.029,0,0,0,5.1,25.455,70.675,70.675,0,0,1,31.323-3.331c3.935.461,7.772,1.558,11.727,1.892,9,.966,18.585.143,26.589-4.391a25.528,25.528,0,0,0,9.635-9.451,42.1,42.1,0,0,0-5.5-27.143c.8-.783,1.578-1.594,2.365-2.389A45.084,45.084,0,0,1-211.623,45.8c-.037,3.792.016,7.588-.02,11.38A45.723,45.723,0,0,1-224.316,83.26a45.623,45.623,0,0,1-26.85,13.451c-3.808.069-7.625-.02-11.433.069a45.8,45.8,0,0,1-26.854-13.109,45.667,45.667,0,0,1-12.355-22.438c-1.284-5.052-.579-10.3-.726-15.453a45.386,45.386,0,0,1,13.672-27.469A45.679,45.679,0,0,1-263.373,5.9Zm-22.674,68.35c1.052,2.756,1.631,5.659,2.54,8.461.322,1.109,1.456,1.6,2.316,2.218,1.007-3.539,1.912-7.111,2.87-10.662-.648-.008-1.3-.02-1.949-.029.5,2.4-.722,4.709-1.268,7-.563-2.336-1.256-4.636-1.786-6.981C-284.233,74.261-285.138,74.261-286.048,74.253Zm10.65,0a27,27,0,0,1,.265,5.382,19.006,19.006,0,0,1-.306,4.881q1.443-.018,2.891,0a17.228,17.228,0,0,1-.314-4.485,31.4,31.4,0,0,1,.261-5.774C-273.534,74.257-274.464,74.257-275.4,74.249Zm6.157-.037c.8,1.827.5,3.849.555,5.786a15.807,15.807,0,0,1-.375,4.51c.673,0,1.341,0,2.014,0-.555-2.071-.318-4.236-.367-6.353,1.725,2.345,2.581,5.668,5.57,6.764.2-3.551-.408-7.18.383-10.671q-1,0-1.994.012c.538,2.059.3,4.2.367,6.3-1.313-2.018-2.4-4.179-3.743-6.177A15.388,15.388,0,0,0-269.241,74.212Zm13.1.033a7.4,7.4,0,0,1-.265,2.9,66.563,66.563,0,0,1-2.218,7.364c.718,0,1.435,0,2.157,0a5.255,5.255,0,0,1,.314-3.013c.8-.118,1.619-.086,2.43-.13a6.2,6.2,0,0,1,.228,3.144q1.572-.012,3.144,0c-1.468-3.266-2.092-6.834-3.193-10.234C-254.411,74.261-255.28,74.257-256.144,74.245Zm8.669.016a46.279,46.279,0,0,1-.082,10.247q1.456-.012,2.911,0c-.693-2.911-.289-5.937-.351-8.9,1.925.848,1.407,3.339.285,4.66,1.105-.183,2.406-.351,2.972-1.472.689-1.394.567-3.56-1-4.31A21.141,21.141,0,0,0-247.475,74.261Zm10.985-.008.457.893c-.946,3.115-1.448,6.381-2.785,9.362.726,0,1.456,0,2.185,0a7.715,7.715,0,0,1,.269-3.095q1.266,0,2.532,0a8.692,8.692,0,0,1,.253,3.091q1.56-.012,3.119,0c-1.549-3.233-2.1-6.838-3.233-10.23C-234.628,74.265-235.557,74.261-236.491,74.253Z" transform="translate(302.596 -5.781)" fill="#fff"/></g><g transform="translate(-295.444 15.931)"><path d="M-217.128,31.489c2.6-.045,5.158-.506,7.731-.783,2.047-.249,4.6.995,4.669,3.286a9.389,9.389,0,0,1-3.242,6.353c-1.672,1.606-3.14,3.755-5.509,4.338-1.839.453-3.437-.738-4.726-1.884-1.093-1.044-2.895-.285-4.016-1.26a9.886,9.886,0,0,1-.868-2.255c-2.181-.265-4.065,1.044-5.9,2-6.748,3.914-13.215,8.391-20.477,11.331-8.383,3.286-16.664,7.278-23.523,13.211-4.151,3.6-7.735,8.139-9.268,13.488a25.676,25.676,0,0,0-.852,6.128c-2.41-5-2.353-10.879-1.076-16.183,2.226-8.648,7.763-16.02,14.075-22.153,1.068-1.121,2.414-2.01,3.189-3.38-1.333-1.26-3.25-1.774-4.359-3.29-1.4-1.717-1.607-4-1.761-6.128,3.474,1.912,7.568,2,11.433,1.823,6.153-.261,12.106-1.994,18.189-2.813C-234.726,31.934-225.915,31.677-217.128,31.489Zm7.021,5.794c-1.284.624-.175,2.915,1.068,2.153C-207.477,38.865-208.733,36.272-210.107,37.283Z" transform="translate(285.056 -30.675)" fill="#fff"/></g><path d="M-151.368,62c1.427-.758,3,.2,3.975,1.248-5.341,4-11.2,7.254-16.717,11a11.97,11.97,0,0,1,3.254-5.782A32.1,32.1,0,0,1-151.368,62Z" transform="translate(-82.02 -33.133)" fill="#fff"/><path d="M-239.172,83.882a55.6,55.6,0,0,0,30.67-17.15c1.134.179,2.259.412,3.4.538-5.5,3.046-9.749,7.784-14.8,11.453a52.7,52.7,0,0,1-20.069,9.007c-4.318,1.085-8.8,1.394-13.072,2.675-5.957,1.688-11.824,4.722-15.506,9.855,1.448-3.352,4.2-5.937,7.139-8.012C-254.805,87.71-246.964,85.4-239.172,83.882Z" transform="translate(-20.164 -36.099)" fill="#fff"/><path d="M-204.427,130.8a50.83,50.83,0,0,0,6.573-4.053c-6.4,6.455-14.785,11.188-23.869,12.387a34.411,34.411,0,0,1-11.123-.306c-3.172-.591-6.218-1.7-9.374-2.357-7.661-1.725-15.926-2.149-23.339.84,6.446-3.959,14.193-5.284,21.671-5.129a64.781,64.781,0,0,1,12.167,1.611A42.4,42.4,0,0,0-204.427,130.8Z" transform="translate(-21.935 -71.646)" fill="#fff"/><path d="M-187.072,180.4c.318.962.62,1.929.917,2.895-.542.037-1.089.077-1.635.118C-187.541,182.412-187.309,181.405-187.072,180.4Z" transform="translate(-67.995 -103.421)" fill="#fff"/><path d="M-139.19,183.313c.277-.962.587-1.916.9-2.87.236,1,.489,2,.734,3.005C-138.1,183.4-138.648,183.357-139.19,183.313Z" transform="translate(-96.779 -103.445)" fill="#fff"/></g></svg>