<svg xmlns="http://www.w3.org/2000/svg" width="29.09" height="18.065" viewBox="0 0 29.09 18.065"><g transform="translate(0 -4.001)"><path d="M14.6,18.272l8.253-5.928a1.3,1.3,0,0,0,0-2.237L14.6,4.18A1.294,1.294,0,0,0,12.647,5.3V7.613c-2.71,0-10.84,0-12.647,14.454a13.455,13.455,0,0,1,12.647-7.227v2.314a1.3,1.3,0,0,0,1.949,1.12Z" fill="#fff"/><path d="M10.947,4.457a.9.9,0,0,1,1.265-.192l7.214,5.312a2.072,2.072,0,0,1,0,3.516L12.21,18.405a.9.9,0,1,1-1.071-1.455l7.249-5.337a.891.891,0,0,1,.076-.051.266.266,0,0,0,0-.455.9.9,0,0,1-.076-.051L11.138,5.72a.9.9,0,0,1-.192-1.263Z" transform="translate(8.689 0.071)" fill="#fff" fill-rule="evenodd"/></g></svg>