<svg xmlns="http://www.w3.org/2000/svg" width="140.185" height="129.027" viewBox="0 0 140.185 129.027"><g transform="translate(-1092.499 -251.498)"><path d="M136.182,185.643,60.961,150.114a5.908,5.908,0,0,0-4.728-.137L1.8,171.913a1.163,1.163,0,0,0-.736,1.008M136.12,187.806l-31.443,12.671M1.062,172.921a1.167,1.167,0,0,0,.673,1.155L76.956,209.6a5.9,5.9,0,0,0,4.728.137l22.992-9.265M1.062,172.921v2.859m0,0A1.17,1.17,0,0,1,1.8,174.6L56.233,152.66a5.905,5.905,0,0,1,4.728.137l4.64,2.192M1.062,175.78a1.16,1.16,0,0,0,.673.978l4.342,2.051,70.879,33.478a5.905,5.905,0,0,0,4.728.137l3.8-1.533,50.632-20.4a1.181,1.181,0,0,0,.062-2.163L65.6,154.989m-40.921,7.7L92.8,194.867m11.876,5.609L92.8,194.867m0,0,33.947-13.68-3.066,1.235M34.719,167.434,65.6,154.989M61.278,94.1v45.46A5.9,5.9,0,0,0,64.66,144.9l67.254,31.766A1.181,1.181,0,0,0,133.6,175.6v-45.46a5.9,5.9,0,0,0-3.383-5.338L62.963,93.032A1.181,1.181,0,0,0,61.278,94.1Z" transform="translate(1091.941 167.146)" fill="none" stroke="#fff" stroke-width="0.5"/><path d="M60.863,84.144a1.193,1.193,0,0,1,.269-.106m-.269.106-2.24.873m2.24-.873.269-.106m0,0a1.166,1.166,0,0,1,.8.077l74.93,35.391a5.9,5.9,0,0,1,3.383,5.338v59.929a1.179,1.179,0,0,1-.827,1.127m0,0-2.563,1.053a2,2,0,0,0,.76-.679,1.177,1.177,0,0,0,.119-.521V125.824a5.905,5.905,0,0,0-3.382-5.339L59.421,85.094q-.043-.02-.087-.037a1.181,1.181,0,0,0-1.6,1.1V146.09a5.9,5.9,0,0,0,.606,2.605m81.074,37.2.15-.06M1.062,172.068a1.163,1.163,0,0,1,.736-1.008l54.435-21.936a5.924,5.924,0,0,1,2.109-.428M1.062,172.068a1.167,1.167,0,0,0,.673,1.155l75.221,35.528a5.9,5.9,0,0,0,4.728.137l7.641-3.079,15.351-6.186,31.443-12.671a1.162,1.162,0,0,0,.733-.979M1.062,172.068v2.858a1.161,1.161,0,0,0,.673.979l75.221,35.529a5.905,5.905,0,0,0,4.728.137l54.435-21.936a1.163,1.163,0,0,0,.733-.98v-2.683m0,0a1.169,1.169,0,0,0-.671-1.184l-9.434-4.455L68.375,152.726l-7.414-3.465a5.908,5.908,0,0,0-2.619-.565M43.676,174.321l-15.795,6.365a.951.951,0,0,0-.051,1.743l26.454,12.495a4.754,4.754,0,0,0,3.809.111l15.795-6.365a.951.951,0,0,0,.051-1.743L47.486,174.432A4.757,4.757,0,0,0,43.676,174.321Z" transform="translate(1091.941 168)" fill="none" stroke="#fff" stroke-width="1"/><path d="M6,0l6,10H0Z" transform="translate(1176 285)" fill="#e72d4b"/><ellipse cx="5.5" cy="6" rx="5.5" ry="6" transform="translate(1192 295)" fill="#e72d4b"/><rect width="10" height="10" transform="translate(1173 302)" fill="#e72d4b"/></g></svg>