<svg xmlns="http://www.w3.org/2000/svg" width="40" height="40" viewBox="0 0 40 40"><g transform="translate(-1684 -4869)"><circle cx="20" cy="20" r="20" transform="translate(1684 4869)" fill="rgba(231,45,75,0)"/><path d="M3.8,7.511v10.8H.207V7.511Zm.229-3.335A1.861,1.861,0,0,1,2.005,6.039H1.984a1.869,1.869,0,1,1,.043-3.727A1.855,1.855,0,0,1,4.032,4.176ZM16.74,12.121v6.19H13.154V12.535c0-1.449-.523-2.441-1.82-2.441A1.966,1.966,0,0,0,9.492,11.4a2.705,2.705,0,0,0-.12.883v6.027H5.786c.044-9.787,0-10.8,0-10.8H9.372V9.081H9.351a3.56,3.56,0,0,1,3.259-1.82c2.365,0,4.131,1.548,4.131,4.861Z" transform="translate(1696 4878.688)" fill="#fff"/></g></svg>