<svg xmlns="http://www.w3.org/2000/svg" width="16.151" height="16.151" viewBox="0 0 16.151 16.151"><g transform="translate(-1.5 -1.499)"><path d="M1.5,15.787A1.863,1.863,0,0,0,3.363,17.65H13.3a1.863,1.863,0,0,0,1.863-1.863V10.817a.621.621,0,1,0-1.242,0v4.969a.621.621,0,0,1-.621.621H3.363a.621.621,0,0,1-.621-.621V5.848a.621.621,0,0,1,.621-.621H8.333a.621.621,0,1,0,0-1.242H3.363A1.863,1.863,0,0,0,1.5,5.848ZM10.2,2.121a.621.621,0,0,1,.621-.621h6.212a.621.621,0,0,1,.621.621V8.333a.621.621,0,1,1-1.242,0V2.742h-5.59A.621.621,0,0,1,10.2,2.121Z" transform="translate(0 0)" fill="#fff" fill-rule="evenodd"/><path d="M16.5,1.682a.621.621,0,0,1,0,.88L6.561,12.5a.622.622,0,0,1-.88-.88L15.62,1.682a.621.621,0,0,1,.88,0Z" transform="translate(0.969 0)" fill="#fff" fill-rule="evenodd"/></g></svg>