<svg xmlns="http://www.w3.org/2000/svg" width="52" height="45" viewBox="0 0 52 45"><g transform="translate(926 1611)"><path d="M1300.54,29.21l-4.447,8.393h16.378a.363.363,0,0,0,.3-.154l5.4-7.685a.363.363,0,0,0-.3-.572Z" transform="translate(-2222.093 -1630.783)" fill="#fff"/><path d="M1355.687,29.742,1345.048,45.49a.9.9,0,0,0,.747,1.407h0a.9.9,0,0,1,.739,1.419l-3.779,5.406a.3.3,0,0,0-.053.169l.01,11.033a.375.375,0,0,0,.679.219l25.054-34.984a.375.375,0,0,0-.306-.594l-12.208.047A.3.3,0,0,0,1355.687,29.742Z" transform="translate(-2242.514 -1631.299)" fill="#fff"/><path d="M1329.74,11.906h8.719a.9.9,0,0,1,.746,1.409l-29.9,42.7a.909.909,0,0,1-.752.386l-8.248-.053a.9.9,0,0,1-.744-1.4L1328.99,12.3A.911.911,0,0,1,1329.74,11.906Z" transform="translate(-2223.577 -1622.906)" fill="#fff"/></g></svg>