<svg xmlns="http://www.w3.org/2000/svg" width="233.565" height="55" viewBox="0 0 233.565 55"><g transform="translate(926 1611)"><path d="M1396.712,53.631V29.377h5.023V53.631Z" transform="translate(-2255.612 -1616.726)" fill="#fff"/><path d="M1414.508,53.631h-4.928V38.657c0-6.171,3.492-9.28,10.429-9.28,7.272,0,10.381,3.109,10.381,9.28V53.631h-4.928V38.657c0-3.252-1.2-4.687-5.454-4.687s-5.5,1.435-5.5,4.687Z" transform="translate(-2259.898 -1616.726)" fill="#fff"/><path d="M1450.736,53.631h-4.928V38.657c0-6.171,3.493-9.28,10.429-9.28,7.271,0,10.381,3.109,10.381,9.28V53.631h-4.927V38.657c0-3.252-1.2-4.687-5.454-4.687s-5.5,1.435-5.5,4.687Z" transform="translate(-2271.967 -1616.726)" fill="#fff"/><path d="M1482.087,43.367V39.313c0-6.6,3.535-10.181,10.841-10.181,7.5,0,10.747,3.394,10.747,10.181v4.054c0,6.553-3.534,10.183-10.747,10.183C1485.387,53.55,1482.087,50.156,1482.087,43.367Zm16.734-4.054c0-3.959-1.319-5.656-5.893-5.656s-5.987,1.7-5.987,5.656v4.054c0,3.913,1.321,5.61,5.987,5.61,4.573,0,5.893-1.65,5.893-5.61Z" transform="translate(-2284.052 -1616.644)" fill="#fff"/><path d="M1520.544,47.786a29.539,29.539,0,0,0,7.7,1.4s3.366.071,4.1-1.027a1.735,1.735,0,0,0,.259-.987c0-1.17-.608-1.733-3-2.809l-5.057-2.248c-3.184-1.358-4.635-2.95-4.635-6.367a6.1,6.1,0,0,1,1.108-3.828c1.828-2.382,5.269-2.5,7.835-2.54a18.96,18.96,0,0,1,8.309,1.817q-.456,2.041-.911,4.083a18.427,18.427,0,0,0-7.491-1.452c-3.044,0-4.121.562-4.121,1.92,0,1.124.562,1.639,2.2,2.387l5.43,2.341c3.419,1.451,5.01,3.09,5.01,6.6,0,4.495-2.856,6.555-9.458,6.555a26.06,26.06,0,0,1-8.288-1.358Q1520.037,50.03,1520.544,47.786Z" transform="translate(-2296.526 -1616.725)" fill="#fff"/><path d="M1550.921,43.3V39.24c0-6.609,3.54-10.2,10.857-10.2,7.506,0,10.762,3.4,10.762,10.2V43.3c0,6.561-3.54,10.2-10.762,10.2C1554.225,53.5,1550.921,50.1,1550.921,43.3Zm16.757-4.06c0-3.965-1.321-5.664-5.9-5.664s-6,1.7-6,5.664V43.3c0,3.918,1.323,5.618,6,5.618,4.579,0,5.9-1.653,5.9-5.618Z" transform="translate(-2306.982 -1616.615)" fill="#fff"/><path d="M1588.129,28.056V24.1l4.162-.79V20.45c0-6.272,3.206-8.544,8.611-8.544a16.683,16.683,0,0,1,5.119.741v4.741a15.813,15.813,0,0,0-4.785-.692c-2.726,0-4.066,1.136-4.066,3.359v3.26h8.372v4.741h-8.372V47.811h-4.879V28.056Z" transform="translate(-2319.377 -1610.906)" fill="#fff"/><path d="M1619.591,30.9V27.071l4.162-.765.813-6.219h4.067v6.219h8.707V30.9h-8.707V41.758q0,4.162,3.732,4.162a11.668,11.668,0,0,0,5.058-.718q-.556,2.492-1.114,4.985h0s-2.519.326-3.945.326c-5.741,0-8.611-2.918-8.611-8.8V30.9Z" transform="translate(-2329.858 -1613.631)" fill="#fff"/><path d="M1301.472,29.213l-5.379,10.153H1315.9a.439.439,0,0,0,.359-.187l6.526-9.3a.439.439,0,0,0-.36-.692Z" transform="translate(-2222.093 -1628.664)" fill="#fff"/><path d="M1358.409,29.779,1345.54,48.828a1.092,1.092,0,0,0,.9,1.7h0a1.092,1.092,0,0,1,.894,1.716l-4.571,6.539a.356.356,0,0,0-.064.2l.012,13.346a.453.453,0,0,0,.821.265l30.3-42.316a.454.454,0,0,0-.37-.718l-14.766.057A.358.358,0,0,0,1358.409,29.779Z" transform="translate(-2237.619 -1628.789)" fill="#fff"/><path d="M1336.1,11.906h10.546a1.1,1.1,0,0,1,.9,1.723l-36.167,52.2a1.1,1.1,0,0,1-.91.472l-9.977-.065a1.1,1.1,0,0,1-.9-1.717q17.8-26.066,35.6-52.133A1.1,1.1,0,0,1,1336.1,11.906Z" transform="translate(-2223.195 -1622.906)" fill="#e72d4b"/></g></svg>