<svg xmlns="http://www.w3.org/2000/svg" xmlns:xlink="http://www.w3.org/1999/xlink" width="68" height="68" viewBox="0 0 68 68"><defs><filter id="a" x="0" y="0" width="68" height="68" filterUnits="userSpaceOnUse"><feOffset dy="3" input="SourceAlpha"/><feGaussianBlur stdDeviation="3" result="b"/><feFlood flood-opacity="0.161"/><feComposite operator="in" in2="b"/><feComposite in="SourceGraphic"/></filter></defs><g transform="translate(9 6)"><g transform="matrix(1, 0, 0, 1, -9, -6)" filter="url(#a)"><circle cx="25" cy="25" r="25" transform="translate(9 6)" fill="#fff"/></g><g transform="translate(37 13) rotate(90)"><rect width="24" height="24" fill="none"/><g transform="translate(6.248 8.856)"><path d="M5.193,5.978a1.21,1.21,0,0,0,1.62,0l4.4-4.19A1,1,0,1,0,9.793.378l-3.67,3.46a.25.25,0,0,1-.33,0L1.663.248a1,1,0,0,0-1.32,1.51Z" fill="#0e1317"/></g></g></g></svg>