<svg xmlns="http://www.w3.org/2000/svg" width="40" height="40" viewBox="0 0 40 40"><g transform="translate(-1740 -4869)"><path d="M20,0A20,20,0,1,1,0,20,20,20,0,0,1,20,0Z" transform="translate(1740 4869)" fill="rgba(231,45,75,0)"/><path d="M20.387,5.9a8.68,8.68,0,0,1-2.025,2.087c.013.175.013.35.013.525A11.408,11.408,0,0,1,6.888,20a11.406,11.406,0,0,1-6.2-1.813,8.325,8.325,0,0,0,.975.05,8.09,8.09,0,0,0,5.013-1.725,4.045,4.045,0,0,1-3.775-2.8,5.079,5.079,0,0,0,.762.062,4.283,4.283,0,0,0,1.062-.138A4.039,4.039,0,0,1,1.488,9.674v-.05a4.074,4.074,0,0,0,1.825.513,4.043,4.043,0,0,1-1.25-5.4,11.475,11.475,0,0,0,8.325,4.225,4.566,4.566,0,0,1-.1-.925,4.041,4.041,0,0,1,6.987-2.762A7.954,7.954,0,0,0,19.838,4.3a4.026,4.026,0,0,1-1.775,2.225A8.1,8.1,0,0,0,20.387,5.9Z" transform="translate(1749.312 4877.001)" fill="#fff"/></g></svg>